<svg width="55" height="18" viewBox="0 0 55 18" fill="none" xmlns="http://www.w3.org/2000/svg">
<path d="M8.43132 12.4807C7.28754 12.0558 6.11111 11.9905 5.03268 12.2846C4.28105 12.4807 3.56213 12.8728 2.90854 13.363L2.45103 13.7551L2.32031 13.8858L2.61442 14.1473C2.6471 14.1473 2.64711 14.18 2.67979 14.2126C2.74514 14.278 2.81051 14.3107 2.90854 14.376L3.10461 14.5067L3.30069 14.3434C3.33337 14.3107 3.39873 14.2453 3.46408 14.2126C4.05232 13.7225 4.70588 13.3957 5.39216 13.2323C6.2745 13.0035 7.22219 13.0362 8.16987 13.3957C8.95418 13.6898 10.5555 14.0492 12.4835 13.2323L12.5489 13.1996L12.6469 13.1015C12.6469 13.0689 12.6796 13.0689 12.7123 13.0362C12.8757 12.8401 13.0391 12.644 13.1698 12.4153L13.8234 11.4022L12.7777 11.9904C11.2417 12.8401 9.83652 13.0035 8.43132 12.4807Z" fill="white"/>
<path d="M3.95484 8.95135C4.83718 8.72262 5.78487 8.7553 6.73259 9.11477C7.77831 9.50693 10.458 10.0625 13.4645 7.3501L14.1181 6.6965L14.0527 6.53312C14.02 6.40241 13.9547 6.23899 13.8893 6.07561L13.7259 5.6181L13.3991 5.94487C13.3665 6.01026 13.3011 6.04293 13.2357 6.10829C11.7978 7.57884 9.57566 9.0821 7.02668 8.16708C5.88293 7.74225 4.70647 7.67686 3.62804 7.97099C2.58232 8.26511 1.6673 8.82065 0.817647 9.60496V9.57228L0.327458 10.0951C0.327458 10.1278 0.294785 10.1278 0.262106 10.1605L0.164062 10.2585L0.196744 10.3893C0.229423 10.5526 0.294779 10.716 0.327458 10.8794L0.523537 11.4023L0.850327 10.9775C0.883007 10.9121 0.948363 10.8794 0.981043 10.8141C1.6673 10.1932 2.615 9.31083 3.95484 8.95135Z" fill="white"/>
<path d="M0.784307 8.36308C1.53593 7.57877 2.38558 7.08859 3.3006 6.82714C4.18295 6.5984 5.13064 6.63108 6.07833 6.99056C9.01946 8.06895 11.5684 6.30428 12.6795 5.35659L13.1043 4.93176L13.2678 4.80105L13.137 4.60496C13.039 4.50693 12.9736 4.37622 12.8756 4.24548L12.6795 3.98407L12.4508 4.21281C12.4181 4.24548 12.3527 4.31083 12.32 4.34355C10.9475 5.65071 8.82337 6.99056 6.40513 6.07554C5.26134 5.65071 4.08492 5.58532 3.00649 5.87945C2.32022 6.07554 1.66664 6.40231 1.01306 6.82714L0.326792 7.38271C0.261433 7.44806 0.228754 7.48074 0.163396 7.54609L0.0980434 7.61145V7.70947C0.0653644 7.93825 0.0653605 8.16698 0.0326812 8.36308L0 9.18006L0.55555 8.59181C0.620907 8.52646 0.686271 8.42843 0.784307 8.36308Z" fill="white"/>
<path d="M9.37943 14.7029C9.2814 14.6702 9.21605 14.6375 9.11802 14.6048C7.97423 14.18 6.79777 14.1146 5.71934 14.4087C5.49061 14.4741 5.26187 14.5394 5.0331 14.6375L4.24879 14.9969L4.05273 15.095L4.7063 15.3237C4.90239 15.3891 5.09845 15.4545 5.29455 15.5198L5.39258 15.5525L5.49061 15.5198C5.58864 15.4872 5.6867 15.4218 5.78473 15.4218C5.85008 15.4218 5.91544 15.3891 5.98079 15.3564C6.7651 15.1604 7.61476 15.1604 8.52977 15.4544C8.6278 15.4872 8.69319 15.5198 8.79122 15.5525L8.9546 15.6179L9.05263 15.5852C9.2814 15.5198 9.54281 15.4545 9.73891 15.3564L10.6539 15.0297L9.70623 14.8009C9.6082 14.7682 9.47746 14.7355 9.37943 14.7029Z" fill="white"/>
<path d="M14.3785 7.93829L13.8884 8.42848C13.823 8.49383 13.7577 8.55918 13.6923 8.62454C12.3525 9.89903 10.1956 11.2715 7.77735 10.3565C6.63357 9.9317 5.45715 9.86635 4.37871 10.1605C3.36567 10.4546 2.45064 10.9775 1.63366 11.7618L1.20884 12.2193L1.07812 12.3827L1.20884 12.5787C1.30688 12.7095 1.37224 12.8075 1.4376 12.9382L1.63366 13.2323L1.86242 12.9382C1.8951 12.9055 1.96046 12.8402 1.99314 12.8075C2.77744 11.9578 3.62708 11.435 4.60749 11.1735C5.48982 10.9447 6.43751 10.9775 7.3852 11.3369C8.20218 11.631 9.05184 11.7291 9.9015 11.631C11.4047 11.4676 12.908 10.618 14.0191 9.67029C14.0845 9.60494 14.1498 9.57226 14.2152 9.50687L14.3132 9.40884V9.31081C14.3132 9.11472 14.3459 8.88598 14.3459 8.68989L14.3785 7.93829Z" fill="white"/>
<path d="M1.95989 4.93187C2.15596 4.83381 2.38472 4.76846 2.5808 4.7031C3.46314 4.47433 4.41083 4.50701 5.35852 4.86649C5.97944 5.09526 6.60033 5.19329 7.28661 5.19329C8.65913 5.19329 10.0316 4.7031 11.3061 3.75541L11.9597 3.23254L11.6656 3.00378C11.5676 2.90574 11.4368 2.80771 11.3061 2.74235L11.11 2.61163L10.9467 2.74235C10.8813 2.77503 10.8486 2.84039 10.7833 2.87306C9.05128 4.18024 7.31929 4.53972 5.68532 3.9188C4.50886 3.49397 3.33241 3.39593 2.15596 3.75541C2.05793 3.78809 1.95989 3.82077 1.82917 3.85344L1.76382 3.88612L1.66578 3.98415C1.66578 4.01683 1.6331 4.01683 1.60042 4.0495C1.46971 4.2456 1.30631 4.40898 1.17559 4.60507L0.554688 5.55276L1.56774 5.0299C1.73114 5.0299 1.86185 4.96455 1.95989 4.93187Z" fill="white"/>
<path d="M4.63949 2.70961L4.73752 2.74229C5.16235 2.90569 5.81596 3.06908 6.6329 3.06908C7.48256 3.06908 8.29955 2.873 9.11653 2.54621L10.1296 2.05603L9.44333 1.82728C9.24727 1.76192 9.05118 1.69656 8.82241 1.66388H8.72438L8.62635 1.69655C8.52832 1.72923 8.43025 1.7946 8.33222 1.82728C7.35186 2.18675 6.37149 2.25211 5.4238 1.99067C5.32574 1.95799 5.22771 1.92531 5.12968 1.89263L5.03165 1.85995L4.93358 1.89263C4.73752 1.95799 4.54146 2.02335 4.34537 2.12139L3.59375 2.44818L4.37805 2.67693C4.4434 2.64425 4.54146 2.67693 4.63949 2.70961Z" fill="white"/>
<path d="M47.7202 5.02008C47.5713 4.87126 47.3837 4.79684 47.1572 4.79684C46.9307 4.79684 46.7399 4.87126 46.5846 5.02008C46.4357 5.16243 46.3613 5.34361 46.3613 5.56361C46.3613 5.78361 46.4357 5.96802 46.5846 6.11684C46.7399 6.26567 46.9307 6.34008 47.1572 6.34008C47.3837 6.34008 47.5713 6.26567 47.7202 6.11684C47.869 5.96802 47.9434 5.78361 47.9434 5.56361C47.9434 5.34361 47.869 5.16243 47.7202 5.02008Z" fill="white"/>
<path d="M36.7347 10.4651C36.4888 10.258 36.3529 9.98626 36.327 9.64979L34.9004 9.63038C34.9069 10.0639 35.0298 10.4554 35.2692 10.8048C35.5086 11.1542 35.8386 11.4292 36.2591 11.6298C36.6862 11.8239 37.1715 11.921 37.715 11.921C38.2197 11.921 38.6726 11.8271 39.0738 11.6395C39.4815 11.4518 39.7985 11.1963 40.025 10.8727C40.2515 10.5427 40.3647 10.1707 40.3647 9.75655C40.3647 9.32949 40.2676 8.98979 40.0735 8.73743C39.8859 8.47861 39.6368 8.28773 39.3262 8.16479C39.0156 8.03538 38.6338 7.92861 38.1809 7.84449C37.7344 7.76038 37.4044 7.6892 37.1909 7.63096C36.9773 7.56626 36.8123 7.48538 36.6959 7.38832C36.5794 7.28479 36.5212 7.14243 36.5212 6.96126C36.5212 6.70891 36.6182 6.51479 36.8123 6.37891C37.0065 6.24302 37.2653 6.17508 37.5888 6.17508C37.9382 6.17508 38.2197 6.26567 38.4332 6.44685C38.6468 6.62155 38.7697 6.85449 38.802 7.14567H40.2288C40.2223 6.73802 40.1026 6.37243 39.8697 6.04891C39.6432 5.72538 39.3294 5.47302 38.9282 5.29185C38.5335 5.1042 38.087 5.01038 37.5888 5.01038C37.1035 5.01038 36.6668 5.10096 36.2785 5.28214C35.8969 5.45685 35.596 5.69949 35.376 6.01008C35.1625 6.32067 35.0557 6.67332 35.0557 7.06802C35.0557 7.50155 35.1495 7.85096 35.3372 8.11626C35.5313 8.37508 35.7804 8.57244 36.0844 8.70832C36.3885 8.83773 36.7638 8.94449 37.2103 9.02861C37.6632 9.1192 37.9965 9.19685 38.21 9.26155C38.43 9.31979 38.5982 9.40391 38.7147 9.51391C38.8376 9.61743 38.8991 9.75979 38.8991 9.94096C38.8991 10.1998 38.7891 10.4036 38.5691 10.5524C38.3556 10.6948 38.0773 10.766 37.7344 10.766C37.3203 10.766 36.9871 10.6657 36.7347 10.4651Z" fill="white"/>
<path fill-rule="evenodd" clip-rule="evenodd" d="M20.4593 5.06863L17.9746 11.8628H19.479L20.0031 10.3778H22.5849L23.109 11.8628H24.6717L22.2064 5.06863H20.4593ZM20.3914 9.20334L21.2843 6.62158L22.187 9.20334H20.3914Z" fill="white"/>
<path d="M43.7813 6.81569C44.3701 6.81569 44.8522 6.99687 45.2275 7.35922C45.6093 7.72158 45.8001 8.3201 45.8001 9.15481V11.8628H44.4316V9.21305C44.4316 8.79893 44.3475 8.4851 44.1793 8.27158C44.011 8.05158 43.7587 7.94157 43.4222 7.94157C43.0728 7.94157 42.7978 8.06128 42.5972 8.30069C42.4031 8.5401 42.306 8.87334 42.306 9.3004V11.8628H40.9375V5.06863H42.306V7.4854C42.6749 7.03893 43.1666 6.81569 43.7813 6.81569Z" fill="white"/>
<path d="M50.2853 6.64099C50.2853 6.49863 50.3177 6.3951 50.3824 6.3304C50.4471 6.26569 50.5506 6.23334 50.693 6.23334H51.5374V5.06863H50.4212C49.923 5.06863 49.5477 5.18834 49.2953 5.42775C49.043 5.66069 48.9168 5.99716 48.9168 6.43716V6.87393H48.0918V8.02893H48.9168V11.8628H50.2853V8.02893H52.4476V11.8628H53.8161V8.02893H54.8935V6.87393H53.8161V5.06863H52.4476V6.87393H50.2853V6.64099Z" fill="white"/>
<path d="M47.8373 6.8739H46.4688V11.8627H47.8373V6.8739Z" fill="white"/>
<path d="M26.3627 5.06863H24.9941V11.8628H26.3627V5.06863Z" fill="white"/>
<path d="M27.4422 6.87393H26.6172V8.02893H27.4422V11.8628H28.8107V8.02893H29.8881V6.87393H28.8107V5.06863H27.4422V6.87393Z" fill="white"/>
<path d="M31.6631 11.2416H32.9054V9.72745H34.419V8.4851H32.9054V6.97098H32.9049H31.6626V8.4851H30.1484V9.72745H31.6626V11.2416H31.6631Z" fill="white"/>
</svg>
