<svg width="60" height="18" viewBox="0 0 60 18" fill="none" xmlns="http://www.w3.org/2000/svg">
<path fill-rule="evenodd" clip-rule="evenodd" d="M7.74194 16.5C12.0177 16.5 15.4839 13.1421 15.4839 9C15.4839 4.85786 12.0177 1.5 7.74194 1.5C3.46617 1.5 0 4.85786 0 9C0 13.1421 3.46617 16.5 7.74194 16.5ZM10.1571 4.9938C10.2747 4.58929 9.86946 4.35004 9.49936 4.60549L4.33281 8.1711C3.93143 8.44811 3.99457 9 4.42765 9H5.78814V8.9898H8.43968L6.27917 9.72829L5.32672 13.0062C5.20916 13.4108 5.61437 13.65 5.98452 13.3945L11.1511 9.82894C11.5524 9.55193 11.4893 9 11.0562 9H8.99307L10.1571 4.9938Z" fill="white"/>
<path d="M49.9348 6.32705C50.1083 6.48103 50.3177 6.55805 50.5635 6.55805C50.8163 6.55805 51.0257 6.48103 51.1921 6.32705C51.3582 6.17304 51.4414 5.97005 51.4414 5.71805C51.4414 5.46605 51.3582 5.26303 51.1921 5.10905C51.0257 4.95504 50.8163 4.87805 50.5635 4.87805C50.3177 4.87805 50.1083 4.95504 49.9348 5.10905C49.7684 5.26303 49.6855 5.46605 49.6855 5.71805C49.6855 5.97005 49.7684 6.17304 49.9348 6.32705Z" fill="white"/>
<path fill-rule="evenodd" clip-rule="evenodd" d="M23.9944 12.144C23.6548 12.298 23.2574 12.375 22.8022 12.375H19.3555V5.02502H22.7588C23.2213 5.02502 23.6223 5.10201 23.9619 5.25602C24.3088 5.40302 24.5761 5.61651 24.764 5.89652C24.9591 6.16952 25.0566 6.49851 25.0566 6.88352V6.98852C25.0566 7.32452 24.9916 7.60101 24.8615 7.81802C24.7315 8.02802 24.5761 8.1925 24.3955 8.31153C24.222 8.4235 24.0559 8.50401 23.8969 8.55302V8.74202C24.0559 8.78402 24.2293 8.8645 24.4171 8.98352C24.605 9.0955 24.764 9.26001 24.894 9.47703C25.0314 9.694 25.1 9.9775 25.1 10.3275V10.4325C25.1 10.8385 25.0024 11.1885 24.8073 11.4825C24.6122 11.7695 24.3413 11.99 23.9944 12.144ZM23.3875 9.52952C23.1996 9.38252 22.9467 9.30903 22.6288 9.30903H20.7862V11.115H22.6288C22.9395 11.115 23.1888 11.0415 23.3766 10.8945C23.5717 10.7475 23.6693 10.5375 23.6693 10.2645V10.1595C23.6693 9.88652 23.5753 9.67652 23.3875 9.52952ZM23.3441 6.50552C23.1563 6.35852 22.9106 6.28502 22.6071 6.28502H20.7862V8.04902H22.6071C22.9033 8.04902 23.1454 7.97552 23.3333 7.82852C23.5284 7.68152 23.6259 7.4785 23.6259 7.21952V7.11452C23.6259 6.8485 23.532 6.64551 23.3441 6.50552Z" fill="white"/>
<path fill-rule="evenodd" clip-rule="evenodd" d="M28.3259 12.522C27.7911 12.522 27.3106 12.417 26.8843 12.207C26.458 11.997 26.122 11.6925 25.8763 11.2935C25.6306 10.8945 25.5078 10.415 25.5078 9.85502V9.68702C25.5078 9.12699 25.6306 8.64752 25.8763 8.24852C26.122 7.84952 26.458 7.54502 26.8843 7.33502C27.3106 7.12502 27.7911 7.02002 28.3259 7.02002C28.8606 7.02002 29.3411 7.12502 29.7674 7.33502C30.1937 7.54502 30.5297 7.84952 30.7754 8.24852C31.0211 8.64752 31.1439 9.12699 31.1439 9.68702V9.85502C31.1439 10.415 31.0211 10.8945 30.7754 11.2935C30.5297 11.6925 30.1937 11.997 29.7674 12.207C29.3411 12.417 28.8606 12.522 28.3259 12.522ZM28.3259 11.346C28.7449 11.346 29.0918 11.2165 29.3664 10.9575C29.641 10.6915 29.7783 10.3135 29.7783 9.82352V9.71852C29.7783 9.22851 29.641 8.85399 29.3664 8.59502C29.099 8.32899 28.7522 8.19602 28.3259 8.19602C27.9068 8.19602 27.5599 8.32899 27.2854 8.59502C27.0108 8.85399 26.8735 9.22851 26.8735 9.71852V9.82352C26.8735 10.3135 27.0108 10.6915 27.2854 10.9575C27.5599 11.2165 27.9068 11.346 28.3259 11.346Z" fill="white"/>
<path d="M36.2589 12.375C35.9048 12.375 35.6158 12.27 35.3918 12.06C35.175 11.843 35.0667 11.556 35.0667 11.199V8.25905H33.7227V7.16705H35.0667V5.55005H36.4323V7.16705H37.9064V8.25905H36.4323V10.968C36.4323 11.178 36.5335 11.283 36.7358 11.283H37.7763V12.375H36.2589Z" fill="white"/>
<path d="M39.1098 12.081C39.5577 12.375 40.1321 12.522 40.8331 12.522C41.5195 12.522 42.0653 12.375 42.4698 12.081C42.8816 11.78 43.0876 11.3565 43.0876 10.8105C43.0876 10.4465 42.99 10.1595 42.7949 9.94952C42.6072 9.73251 42.3471 9.56799 42.0146 9.45602C41.6894 9.33699 41.3244 9.24249 40.9198 9.17252L40.6164 9.12002C40.3706 9.07802 40.1755 9.01851 40.0311 8.94152C39.8867 8.85752 39.8143 8.73152 39.8143 8.56352C39.8143 8.40951 39.8828 8.29052 40.0202 8.20652C40.1577 8.11551 40.3562 8.07002 40.6164 8.07002C40.8765 8.07002 41.0933 8.12601 41.2667 8.23802C41.4475 8.34999 41.5667 8.53899 41.6244 8.80502L42.8925 8.42702C42.7698 8.00702 42.5097 7.66749 42.1121 7.40852C41.7146 7.14951 41.216 7.02002 40.6164 7.02002C39.9804 7.02002 39.4675 7.16001 39.0773 7.44002C38.6871 7.71302 38.492 8.10849 38.492 8.62652C38.492 8.96949 38.5859 9.24951 38.7738 9.46652C38.9615 9.68349 39.2108 9.85502 39.5216 9.98102C39.8325 10.1 40.1755 10.1945 40.5513 10.2645L40.8548 10.317C41.1726 10.373 41.4041 10.4465 41.5485 10.5375C41.6929 10.6215 41.7653 10.744 41.7653 10.905C41.7653 11.066 41.6894 11.2025 41.5376 11.3145C41.3859 11.4195 41.1509 11.472 40.8331 11.472C40.6237 11.472 40.4286 11.444 40.2478 11.388C40.0744 11.325 39.9262 11.2235 39.8035 11.0835C39.6877 10.9435 39.6049 10.751 39.5542 10.506L38.2969 10.821C38.3908 11.367 38.6618 11.787 39.1098 12.081Z" fill="white"/>
<path d="M45.4547 8.60552C45.2232 8.87151 45.1079 9.24602 45.1079 9.72902V12.375H43.7422V5.02502H45.1079V7.80753H45.303C45.3606 7.69551 45.4508 7.5835 45.5739 7.47153C45.6966 7.35951 45.8592 7.2685 46.0617 7.19852C46.2711 7.1215 46.5347 7.08302 46.8529 7.08302C47.2717 7.08302 47.6368 7.17752 47.9476 7.36652C48.2654 7.54851 48.5112 7.804 48.6846 8.13303C48.8581 8.455 48.9448 8.833 48.9448 9.26702V12.375H47.5791V9.37202C47.5791 8.98 47.4777 8.686 47.2756 8.49002C47.0805 8.29401 46.7987 8.19602 46.4302 8.19602C46.011 8.19602 45.6858 8.33252 45.4547 8.60552Z" fill="white"/>
<path d="M57.4824 12.06C57.2657 11.843 57.1573 11.556 57.1573 11.199V8.25902H54.4716V12.375H53.1059V8.25902H51.7402V7.16702H53.1059V6.20102C53.1059 5.84402 53.2143 5.56052 53.4311 5.35052C53.6552 5.13351 53.944 5.02502 54.2982 5.02502H55.7072V6.11702H54.7751C54.5726 6.11702 54.4716 6.22202 54.4716 6.43202V7.16702H57.1573V5.55002H58.5229V7.16702H59.997V8.25902H58.5229V10.968C58.5229 11.178 58.624 11.283 58.8264 11.283H59.8669V12.375H58.3495C57.9953 12.375 57.7066 12.27 57.4824 12.06Z" fill="white"/>
<path d="M49.8809 7.16705V12.3751H51.2465V7.16705H49.8809Z" fill="white"/>
<path d="M31.8633 5.02502V12.375H33.229V5.02502H31.8633Z" fill="white"/>
</svg>
