<svg width="54" height="54" viewBox="0 0 54 54" fill="none" xmlns="http://www.w3.org/2000/svg">
<path d="M37.9776 39.5824C37.1504 38.762 35.8149 38.7675 34.9945 39.5947L29.0039 45.6347V24.9434C29.0039 23.7784 28.0595 22.834 26.8945 22.834C25.7295 22.834 24.7852 23.7784 24.7852 24.9434V45.422L19.0055 39.5947C18.1851 38.7677 16.8496 38.762 16.0224 39.5824C15.1953 40.4028 15.1897 41.7383 16.0102 42.5655L22.5127 49.1216C23.7103 50.3292 25.304 50.9941 27 50.9941C28.696 50.9941 30.2897 50.3292 31.4874 49.1216L37.9898 42.5655C38.8102 41.7383 38.8047 40.4028 37.9776 39.5824Z" fill="white"/>
<path d="M48.7266 18.7888V17.3836C48.7266 9.4557 42.2767 3.00586 34.3489 3.00586C30.8966 3.00586 27.5587 4.24786 24.95 6.5032C23.2242 7.99516 21.8888 9.86565 21.0379 11.9444C19.7298 11.276 18.269 10.916 16.7695 10.916C11.5937 10.916 7.38281 15.1269 7.38281 20.3027V22.221C3.16174 23.1675 0 26.9135 0 31.377C0 33.8843 0.949113 36.2356 2.67258 37.9976C4.41714 39.7814 6.76413 40.7637 9.28125 40.7637H10.0195C11.1845 40.7637 12.1289 39.8193 12.1289 38.6543C12.1289 37.4893 11.1845 36.5449 10.0195 36.5449H9.28125C6.44245 36.5449 4.21875 34.2749 4.21875 31.377C4.21875 28.5273 6.57714 26.209 9.47595 26.209H9.49219C10.6572 26.209 11.6016 25.2646 11.6016 24.0996V20.3027C11.6016 17.4531 13.9199 15.1348 16.7695 15.1348C18.2499 15.1348 19.6622 15.7731 20.6446 16.886C21.186 17.4994 22.0334 17.7443 22.8185 17.5145C23.6037 17.2846 24.1851 16.6216 24.3104 15.813C25.0691 10.9169 29.3845 7.22461 34.3487 7.22461C39.9505 7.22461 44.5078 11.7819 44.5078 17.3836V19.9779C44.5078 20.7584 44.9389 21.4751 45.6283 21.8411C48.1899 23.2007 49.7812 25.8442 49.7812 28.7402C49.7812 32.4063 47.2897 35.5354 43.7221 36.3494C42.5863 36.6086 41.8757 37.7395 42.1349 38.8751C42.3941 40.011 43.5251 40.7219 44.6606 40.4625C47.2733 39.8662 49.6439 38.3839 51.3356 36.2885C53.0537 34.1606 54 31.4799 54 28.7402C54 24.7184 52.0086 21.0133 48.7266 18.7888Z" fill="white"/>
</svg>
