<svg width="89" height="28" viewBox="0 0 89 28" fill="none" xmlns="http://www.w3.org/2000/svg">
<path d="M27.9875 0.0441602C20.291 7.7797 20.3056 20.2828 28.0315 28C20.3056 20.2828 7.78833 20.2679 0.0440729 27.9559C7.74042 20.2205 7.7259 7.71722 0 0C7.7259 7.71722 20.2432 7.73213 27.9875 0.0441602Z" fill="white" fill-opacity="0.7"/>
<path d="M87.5656 4.6312H84.9138V1.12H87.5656V4.6312Z" fill="white" fill-opacity="0.7"/>
<path d="M87.5656 23.6964H84.9138V7.6188H87.5656V23.6964Z" fill="white" fill-opacity="0.7"/>
<path d="M77.7978 7.61877H81.9773V9.83638H78.0445V23.6964H75.3618V9.99038C75.3618 8.41957 76.1635 7.61877 77.7978 7.61877Z" fill="white" fill-opacity="0.7"/>
<path fill-rule="evenodd" clip-rule="evenodd" d="M64.5173 14.1176C60.848 14.1176 58.6587 15.904 58.6587 19.0764C58.6587 22.064 60.6013 24.0044 63.8389 24.0044C66.4599 24.0044 68.6183 22.8648 69.3275 21.0476H69.5125L69.5433 21.8792C69.6358 23.0804 70.16 23.6964 71.6401 23.6964H73.123V21.7252H72.0101V12.9472C72.0101 12.208 71.9793 11.5304 71.4859 10.3908C71.2392 9.80556 70.9001 9.31276 70.4992 8.88156C69.6667 8.01916 68.0016 7.31076 65.874 7.31076C61.958 7.31076 59.4912 9.22036 59.3371 12.4236H61.958C62.0505 10.5756 63.3456 9.43596 65.7198 9.43596C68.1558 9.43596 69.3583 10.5756 69.3583 12.8856V14.1176H64.5173ZM61.403 19.3844V18.3988C61.403 17.0128 62.6364 16.058 64.764 16.058H69.3583V16.9204C69.3583 19.8772 67.4466 21.8484 64.4556 21.8484C62.6055 21.8484 61.403 20.986 61.403 19.3844Z" fill="white" fill-opacity="0.7"/>
<path d="M52.9934 9.83638V21.4788H56.3852V23.6964H52.6851C51.1125 23.6964 50.3416 22.9572 50.3416 21.448V9.83638H47.4123V7.61878H50.3416V2.29037H52.9934V7.61878H56.3544V9.83638H52.9934Z" fill="white" fill-opacity="0.7"/>
<path d="M35.7289 18.83H33.0772C33.0772 21.9408 35.5748 24.0044 39.6449 24.0044C43.5609 24.0044 46.0585 22.1564 46.0585 19.0764C46.0585 16.674 44.6402 15.2264 41.8342 14.7336L38.6582 14.1484C38.0107 14.0252 37.7332 13.9328 37.0857 13.6556C36.4381 13.3168 36.0681 12.7008 36.0681 11.8384C36.0681 10.3292 37.2707 9.37436 39.4599 9.37436C41.7417 9.37436 42.9134 10.3292 42.9751 12.208H45.6269C45.596 9.25116 43.2834 7.31076 39.4599 7.31076C35.7598 7.31076 33.3855 9.12796 33.3855 12.1156C33.3855 14.4256 34.8039 15.8424 37.6715 16.366L41.125 17.0128C42.5434 17.29 43.2526 18.0292 43.2526 19.2304C43.2526 20.9244 41.8959 21.91 39.6449 21.91C37.2707 21.91 35.7289 20.7088 35.7289 18.83Z" fill="white" fill-opacity="0.7"/>
</svg>
