<svg width="117" height="24" viewBox="0 0 117 24" fill="none" xmlns="http://www.w3.org/2000/svg">
<path d="M0 2.91667C0 1.30584 1.2966 0 2.89604 0H8.68812C10.2875 0 11.5842 1.30584 11.5842 2.91667V8.64453C11.5843 8.67953 11.5843 8.71471 11.5843 8.75C11.5843 10.3585 12.8772 11.6629 14.4735 11.6667H14.4802H20.2723C21.8717 11.6667 23.1683 12.9725 23.1683 14.5833V20.4167C23.1683 22.0275 21.8717 23.3333 20.2723 23.3333H14.4802C12.8808 23.3333 11.5842 22.0275 11.5842 20.4167V14.5833C11.5842 14.5752 11.5842 14.5672 11.5843 14.5591C11.5713 12.9595 10.2797 11.6667 8.68829 11.6667C8.68082 11.6667 8.67335 11.6667 8.66588 11.6667H2.89604C1.2966 11.6667 0 10.3608 0 8.75L0 2.91667Z" fill="white" fill-opacity="0.7"/>
<path fill-rule="evenodd" clip-rule="evenodd" d="M54.5339 17.1266C53.723 17.1266 52.999 16.9283 52.3618 16.5316C51.7247 16.1349 51.2208 15.5924 50.8501 14.9041C50.4794 14.2158 50.2941 13.4341 50.2941 12.5591C50.2941 11.6841 50.4794 10.9083 50.8501 10.2316C51.2208 9.54326 51.7247 9.00659 52.3618 8.62159C52.999 8.22492 53.723 8.02659 54.5339 8.02659C55.1826 8.02659 55.7502 8.14909 56.2367 8.39409C56.7233 8.63909 57.1171 8.98326 57.4183 9.42659V4.31659H59.6428V16.9166H57.6616L57.4183 15.6741C57.1403 16.0591 56.7696 16.3974 56.3062 16.6891C55.8545 16.9808 55.2637 17.1266 54.5339 17.1266ZM55.003 15.1666C55.7212 15.1666 56.3062 14.9274 56.758 14.4491C57.2214 13.9591 57.4531 13.3349 57.4531 12.5766C57.4531 11.8183 57.2214 11.1999 56.758 10.7216C56.3062 10.2316 55.7212 9.98659 55.003 9.98659C54.2964 9.98659 53.7114 10.2258 53.248 10.7041C52.7847 11.1824 52.553 11.8008 52.553 12.5591C52.553 13.3174 52.7847 13.9416 53.248 14.4316C53.7114 14.9216 54.2964 15.1666 55.003 15.1666Z" fill="white" fill-opacity="0.7"/>
<path d="M31.7058 16.3391C32.5862 16.8641 33.6404 17.1266 34.8683 17.1266C36.3279 17.1266 37.5211 16.7708 38.4478 16.0591C39.3861 15.3474 39.9711 14.3616 40.2028 13.1016H37.7528C37.6022 13.7316 37.2778 14.2274 36.7797 14.5891C36.2932 14.9391 35.6444 15.1141 34.8336 15.1141C33.7099 15.1141 32.8295 14.7349 32.1924 13.9766C31.5552 13.2066 31.2367 12.1508 31.2367 10.8091C31.2367 9.46744 31.5552 8.4116 32.1924 7.6416C32.8295 6.8716 33.7099 6.4866 34.8336 6.4866C35.6444 6.4866 36.2932 6.6791 36.7797 7.0641C37.2778 7.43744 37.6022 7.9566 37.7528 8.6216H40.2028C39.9711 7.30327 39.3861 6.28244 38.4478 5.5591C37.5211 4.8241 36.3279 4.4566 34.8683 4.4566C33.6404 4.4566 32.5862 4.72494 31.7058 5.2616C30.8254 5.79827 30.1478 6.54494 29.6728 7.5016C29.1979 8.45827 28.9604 9.56077 28.9604 10.8091C28.9604 12.0574 29.1979 13.1599 29.6728 14.1166C30.1478 15.0616 30.8254 15.8024 31.7058 16.3391Z" fill="white" fill-opacity="0.7"/>
<path fill-rule="evenodd" clip-rule="evenodd" d="M42.9535 16.5491C43.6254 16.9341 44.3784 17.1266 45.2125 17.1266C46.0349 17.1266 46.7821 16.9341 47.454 16.5491C48.1259 16.1641 48.6529 15.6333 49.0352 14.9566C49.4291 14.2683 49.626 13.4749 49.626 12.5766C49.626 11.6783 49.4291 10.8908 49.0352 10.2141C48.6529 9.52578 48.1259 8.98911 47.454 8.60411C46.7937 8.21911 46.0523 8.02661 45.2298 8.02661C44.3958 8.02661 43.6428 8.21911 42.9709 8.60411C42.3106 8.98911 41.7835 9.52578 41.3897 10.2141C40.9958 10.8908 40.7989 11.6783 40.7989 12.5766C40.7989 13.4749 40.99 14.2683 41.3723 14.9566C41.7662 15.6333 42.2932 16.1641 42.9535 16.5491ZM46.7242 14.5366C46.2956 14.9683 45.7917 15.1841 45.2125 15.1841C44.6332 15.1841 44.1293 14.9683 43.7007 14.5366C43.2837 14.0933 43.0752 13.4399 43.0752 12.5766C43.0752 11.7133 43.2837 11.0658 43.7007 10.6341C44.1293 10.1908 44.639 9.96911 45.2298 9.96911C45.7975 9.96911 46.2956 10.1908 46.7242 10.6341C47.1528 11.0658 47.3671 11.7133 47.3671 12.5766C47.3671 13.4399 47.1528 14.0933 46.7242 14.5366Z" fill="white" fill-opacity="0.7"/>
<path fill-rule="evenodd" clip-rule="evenodd" d="M62.7415 16.5666C63.4134 16.9399 64.1838 17.1266 65.0526 17.1266C65.7476 17.1266 66.3674 16.9983 66.9118 16.7416C67.4679 16.4849 67.9312 16.1349 68.3019 15.6916C68.6842 15.2366 68.9564 14.7349 69.1186 14.1866H66.8597C66.7091 14.5133 66.4774 14.7816 66.1647 14.9916C65.8635 15.1899 65.487 15.2891 65.0352 15.2891C64.4328 15.2891 63.9173 15.0966 63.4887 14.7116C63.0717 14.3266 62.84 13.7958 62.7937 13.1191H69.3445C69.3561 12.9674 69.3619 12.8216 69.3619 12.6816C69.3735 12.5416 69.3793 12.4074 69.3793 12.2791C69.3793 11.4858 69.1939 10.7683 68.8232 10.1266C68.4641 9.47328 67.9602 8.95995 67.3115 8.58661C66.6628 8.21328 65.9156 8.02661 65.07 8.02661C64.1664 8.02661 63.3787 8.22494 62.7068 8.62161C62.0465 9.00661 61.5252 9.54911 61.1429 10.2491C60.7722 10.9491 60.5869 11.7483 60.5869 12.6466C60.5869 13.5333 60.778 14.3149 61.1603 14.9916C61.5426 15.6683 62.0697 16.1933 62.7415 16.5666ZM63.6277 10.3191C64.0448 10.0041 64.5255 9.84661 65.07 9.84661C65.6376 9.84661 66.1125 10.0158 66.4948 10.3541C66.8771 10.6924 67.0856 11.1474 67.1204 11.7191H62.8284C62.9443 11.0891 63.2107 10.6224 63.6277 10.3191Z" fill="white" fill-opacity="0.7"/>
<path d="M74.43 17.1266C73.5496 17.1266 72.7734 16.9341 72.1015 16.5491C71.4297 16.1641 70.8968 15.6274 70.5029 14.9391C70.1201 14.2508 69.9295 13.4633 69.9295 12.5766C69.9295 11.6899 70.1201 10.9024 70.5029 10.2141C70.8968 9.52578 71.4297 8.98911 72.1015 8.60411C72.7734 8.21911 73.5496 8.02661 74.43 8.02661C75.5305 8.02661 76.4572 8.31828 77.2102 8.90161C77.9631 9.47328 78.4439 10.2666 78.6524 11.2816H76.3066C76.1907 10.8616 75.9591 10.5349 75.6115 10.3016C75.2756 10.0566 74.876 9.93411 74.4126 9.93411C73.7986 9.93411 73.2773 10.1674 72.8487 10.6341C72.4201 11.1008 72.2058 11.7483 72.2058 12.5766C72.2058 13.4049 72.4201 14.0524 72.8487 14.5191C73.2773 14.9858 73.7986 15.2191 74.4126 15.2191C74.876 15.2191 75.2756 15.1024 75.6115 14.8691C75.9591 14.6358 76.1907 14.3033 76.3066 13.8716H78.6524C78.4439 14.8516 77.9631 15.6391 77.2102 16.2341C76.4572 16.8291 75.5305 17.1266 74.43 17.1266Z" fill="white" fill-opacity="0.7"/>
<path d="M81.7732 9.86411L81.5646 8.23661H79.5837V16.9166H81.8079V12.9616C81.8079 12.2966 81.9122 11.7774 82.1207 11.4041C82.3408 11.0308 82.642 10.7683 83.0242 10.6166C83.4065 10.4649 83.8409 10.3891 84.3275 10.3891H84.953V8.02661C84.2232 8.02661 83.5861 8.19578 83.0416 8.53411C82.5087 8.86078 82.0859 9.30411 81.7732 9.86411Z" fill="white" fill-opacity="0.7"/>
<path fill-rule="evenodd" clip-rule="evenodd" d="M88.4016 17.1266C87.6602 17.1266 87.0521 17.0099 86.5771 16.7766C86.1022 16.5316 85.7488 16.2108 85.5172 15.8141C85.2855 15.4174 85.1696 14.9799 85.1696 14.5016C85.1696 13.6966 85.4824 13.0433 86.1079 12.5416C86.7335 12.0399 87.6718 11.7891 88.9229 11.7891H91.1123V11.5791C91.1123 10.9841 90.9443 10.5466 90.6084 10.2666C90.2724 9.98661 89.8554 9.84661 89.3573 9.84661C88.9055 9.84661 88.5117 9.95744 88.1757 10.1791C87.8398 10.3891 87.6313 10.7041 87.5502 11.1241H85.3781C85.4361 10.4941 85.6446 9.94578 86.0037 9.47911C86.3744 9.01245 86.8493 8.65661 87.4285 8.41161C88.0077 8.15495 88.6565 8.02661 89.3747 8.02661C90.6026 8.02661 91.5699 8.33578 92.2765 8.95411C92.9831 9.57244 93.3365 10.4474 93.3365 11.5791V16.9166H91.4424L91.2339 15.5166C90.9791 15.9833 90.62 16.3683 90.1566 16.6716C89.7048 16.9749 89.1198 17.1266 88.4016 17.1266ZM88.9055 15.3766C89.5426 15.3766 90.035 15.1666 90.3825 14.7466C90.7416 14.3266 90.9675 13.8074 91.0602 13.1891H89.1662C88.5754 13.1891 88.1525 13.2999 87.8977 13.5216C87.6428 13.7316 87.5154 13.9941 87.5154 14.3091C87.5154 14.6474 87.6428 14.9099 87.8977 15.0966C88.1525 15.2833 88.4885 15.3766 88.9055 15.3766Z" fill="white" fill-opacity="0.7"/>
<path d="M95.5983 4.98159C95.077 5.42492 94.8163 6.17159 94.8163 7.22159V8.23659H93.6348V10.1091H94.8163V16.9166H97.0405V10.1091H100.47V13.8891C100.47 15.0208 100.742 15.8083 101.287 16.2516C101.831 16.6949 102.555 16.9166 103.459 16.9166H104.97V15.0091H103.893C103.453 15.0091 103.14 14.9333 102.955 14.7816C102.781 14.6183 102.694 14.3266 102.694 13.9066V10.1091H105.023V8.23659H102.694V5.90909H100.731L100.47 8.23659H97.0405V7.22159C97.0405 6.85992 97.1216 6.60326 97.2838 6.45159C97.4459 6.29992 97.7182 6.22409 98.1004 6.22409H98.7086V4.31659H97.7529C96.8494 4.31659 96.1311 4.53826 95.5983 4.98159Z" fill="white" fill-opacity="0.7"/>
<path d="M105.699 17.5816V19.7166H116.813V17.5816H105.699Z" fill="white" fill-opacity="0.7"/>
</svg>
