<svg width="111" height="28" viewBox="0 0 111 28" fill="none" xmlns="http://www.w3.org/2000/svg">
<g clip-path="url(#clip0_2005_499)">
<path d="M12.7914 8.48271C13.2197 8.30626 13.6795 8.21904 14.1427 8.22641C14.6093 8.22346 15.0718 8.31267 15.5036 8.48891C15.9354 8.66515 16.3281 8.92494 16.6591 9.25334C16.99 9.58174 17.2528 9.97227 17.432 10.4025C17.6114 10.8327 17.7038 11.294 17.7039 11.76C17.6996 12.6963 17.3234 13.5927 16.6581 14.2523C15.9928 14.9118 15.0926 15.2809 14.1553 15.2782C13.6865 15.2795 13.222 15.1878 12.7889 15.0083C12.3559 14.8288 11.9628 14.5651 11.6327 14.2326C11.3025 13.9 11.0418 13.5052 10.8657 13.0711C10.6895 12.637 10.6015 12.1723 10.6067 11.704C10.6036 11.2457 10.6948 10.7916 10.8747 10.3699C11.0545 9.94818 11.3192 9.56789 11.6522 9.25261C11.9755 8.92116 12.3632 8.65918 12.7914 8.48271Z" fill="white" fill-opacity="0.7"/>
<path fill-rule="evenodd" clip-rule="evenodd" d="M4.24509 4.1005C6.87345 1.475 10.4382 0 14.1553 0C17.8724 0 21.4372 1.475 24.0656 4.1005C26.6938 6.72602 28.1705 10.287 28.1705 14C28.1705 17.7131 26.6938 21.274 24.0656 23.8995C21.4372 26.525 17.8724 28 14.1553 28H3.50379C2.6117 28 1.75614 27.6459 1.12534 27.0159C0.494534 26.3858 0.140152 25.5311 0.140152 24.64V14C0.140152 10.287 1.61675 6.72602 4.24509 4.1005ZM12.0656 25.2784L18.6149 16.4374C19.8464 14.7556 20.4621 13.1899 20.4621 11.7404C20.4621 10.1071 19.83 8.6898 18.5659 7.4886C17.9795 6.90697 17.2833 6.44745 16.5178 6.1367C15.7522 5.82596 14.9326 5.67018 14.1063 5.6784C13.2827 5.66759 12.4657 5.82478 11.7051 6.14039C10.9446 6.45597 10.2565 6.92332 9.68307 7.5138C9.09183 8.0817 8.62386 8.76501 8.30824 9.52127C7.99263 10.2775 7.83614 11.0905 7.84849 11.9098C7.83503 12.6721 7.97371 13.4294 8.25645 14.1375C8.53921 14.8456 8.96034 15.4904 9.49527 16.0342C10.6043 17.185 11.9166 17.7604 13.4321 17.7604C13.5456 17.7604 13.6816 17.752 13.8526 17.7366C14.0236 17.7212 14.2296 17.696 14.472 17.6638L9.9872 23.7384L12.0656 25.2784Z" fill="white" fill-opacity="0.7"/>
<path d="M59.1109 20.72V1.82001H56.8197V20.72H59.1109Z" fill="white" fill-opacity="0.7"/>
<path d="M90.5672 7.40631V20.72H88.276V7.40631H90.5672Z" fill="white" fill-opacity="0.7"/>
<path d="M88.1036 3.87489C88.1036 3.50575 88.2145 3.19404 88.4362 2.93973C88.6662 2.68544 89.0028 2.55829 89.4462 2.55829C89.8814 2.55829 90.214 2.68544 90.444 2.93973C90.6821 3.19404 90.8012 3.50575 90.8012 3.87489C90.8012 4.22763 90.6821 4.53114 90.444 4.78544C90.214 5.03154 89.8814 5.15459 89.4462 5.15459C89.0028 5.15459 88.6662 5.03154 88.4362 4.78544C88.2145 4.53114 88.1036 4.22763 88.1036 3.87489Z" fill="white" fill-opacity="0.7"/>
<path d="M99.0489 9.15359V7.40632H96.5606V4.1702H94.2817V7.40632H91.8428V9.15359H94.2817V17.41C94.2817 18.296 94.4173 19.0015 94.6882 19.5265C94.9674 20.0432 95.341 20.4124 95.8091 20.6339C96.2772 20.8554 96.7905 20.9661 97.349 20.9661C97.7595 20.9661 98.1086 20.9374 98.3959 20.88C98.6916 20.8307 98.9297 20.7774 99.1104 20.72L99.098 18.8621C98.9913 18.8866 98.8312 18.9195 98.6176 18.9605C98.4124 18.9932 98.2152 19.0096 98.0264 19.0096C97.7718 19.0096 97.5337 18.9728 97.312 18.8989C97.0902 18.8251 96.9096 18.6733 96.77 18.4436C96.6304 18.214 96.5606 17.8735 96.5606 17.4223V9.15359H99.0489Z" fill="white" fill-opacity="0.7"/>
<path d="M104.256 20.5763L99.499 7.40631H101.987L105.323 17.3671L108.417 7.40631H110.856L105.51 22.7749C105.387 23.1029 105.223 23.4557 105.018 23.833C104.82 24.2186 104.566 24.5837 104.254 24.9283C103.942 25.2728 103.564 25.5517 103.121 25.7649C102.685 25.9864 102.164 26.0971 101.556 26.0971C101.376 26.0971 101.146 26.0725 100.866 26.0233C100.587 25.974 100.39 25.933 100.275 25.9003L100.263 24.0545C100.328 24.0628 100.431 24.071 100.571 24.0791C100.719 24.0955 100.821 24.1038 100.879 24.1038C101.396 24.1038 101.835 24.0341 102.197 23.8946C102.558 23.7633 102.862 23.5378 103.108 23.2179C103.363 22.9061 103.581 22.4755 103.761 21.9258L104.256 20.5763Z" fill="white" fill-opacity="0.7"/>
<path d="M82.4796 18.7635C82.0198 18.985 81.5187 19.0957 80.9768 19.0957C80.2705 19.0957 79.6792 18.9605 79.203 18.6897C78.7349 18.4108 78.3612 18.0416 78.0821 17.5823C77.811 17.123 77.618 16.6103 77.5031 16.0443C77.3882 15.4782 77.3307 14.904 77.3307 14.3216V13.8048C77.3307 13.2223 77.3882 12.6522 77.5031 12.0944C77.6263 11.5284 77.8233 11.0157 78.0944 10.5563C78.3736 10.0887 78.7472 9.7196 79.2153 9.4489C79.6916 9.16999 80.2788 9.03053 80.9768 9.03053C81.5844 9.03053 82.1142 9.16588 82.5658 9.43659C83.0256 9.69909 83.3871 10.0518 83.6499 10.4948C83.9208 10.9378 84.0768 11.4341 84.1178 11.9837H86.2858C86.2448 11.0649 85.9984 10.2446 85.5468 9.52272C85.1034 8.79265 84.4915 8.21842 83.7114 7.80006C82.9313 7.37351 82.0198 7.16022 80.9768 7.16022C79.9749 7.16022 79.1004 7.33659 78.3531 7.68932C77.614 8.04206 76.9981 8.52604 76.5053 9.14127C76.0208 9.75652 75.6555 10.4661 75.4091 11.27C75.1708 12.0657 75.0518 12.9106 75.0518 13.8048V14.3216C75.0518 15.2157 75.1708 16.0647 75.4091 16.8686C75.6555 17.6643 76.0208 18.3698 76.5053 18.985C76.9981 19.6003 77.614 20.0842 78.3531 20.437C79.1004 20.7897 79.9749 20.9661 80.9768 20.9661C81.9212 20.9661 82.7875 20.761 83.5759 20.3508C84.3642 19.9325 85.0006 19.387 85.4851 18.7143C85.9779 18.0335 86.2448 17.2992 86.2858 16.5117H84.1178C84.0768 17.0122 83.9084 17.4592 83.6129 17.8529C83.3171 18.2385 82.9394 18.542 82.4796 18.7635Z" fill="white" fill-opacity="0.7"/>
<path fill-rule="evenodd" clip-rule="evenodd" d="M61.4089 14.2108V13.9278C61.4089 12.968 61.5485 12.078 61.8277 11.2577C62.107 10.4292 62.5094 9.71139 63.035 9.10435C63.5605 8.48912 64.197 8.01335 64.9442 7.67701C65.6915 7.33249 66.5291 7.16022 67.457 7.16022C68.3932 7.16022 69.235 7.33249 69.9823 7.67701C70.7378 8.01335 71.3783 8.48912 71.9039 9.10435C72.4377 9.71139 72.8442 10.4292 73.1234 11.2577C73.4025 12.078 73.5421 12.968 73.5421 13.9278V14.2108C73.5421 15.1705 73.4025 16.0606 73.1234 16.8809C72.8442 17.7013 72.4377 18.4189 71.9039 19.0342C71.3783 19.6413 70.7419 20.117 69.9946 20.4615C69.2554 20.798 68.4179 20.9661 67.4817 20.9661C66.5456 20.9661 65.7039 20.798 64.9566 20.4615C64.2093 20.117 63.5687 19.6413 63.035 19.0342C62.5094 18.4189 62.107 17.7013 61.8277 16.8809C61.5485 16.0606 61.4089 15.1705 61.4089 14.2108ZM63.6878 13.9278V14.2108C63.6878 14.8753 63.7659 15.5027 63.9218 16.0934C64.0778 16.6758 64.3119 17.1927 64.624 17.6438C64.9443 18.095 65.3426 18.4518 65.8188 18.7143C66.295 18.9686 66.8495 19.0957 67.4817 19.0957C68.1058 19.0957 68.652 18.9686 69.1201 18.7143C69.5963 18.4518 69.9905 18.095 70.3025 17.6438C70.6146 17.1927 70.8487 16.6758 71.0047 16.0934C71.1689 15.5027 71.2511 14.8753 71.2511 14.2108V13.9278C71.2511 13.2716 71.1689 12.6522 71.0047 12.0698C70.8487 11.4792 70.6104 10.9583 70.2902 10.5071C69.9782 10.0477 69.584 9.68678 69.1077 9.42428C68.6396 9.16178 68.0894 9.03053 67.457 9.03053C66.8329 9.03053 66.2828 9.16178 65.8065 9.42428C65.3384 9.68678 64.9443 10.0477 64.624 10.5071C64.3119 10.9583 64.0778 11.4792 63.9218 12.0698C63.7659 12.6522 63.6878 13.2716 63.6878 13.9278Z" fill="white" fill-opacity="0.7"/>
<path fill-rule="evenodd" clip-rule="evenodd" d="M49.5452 20.9661C48.6173 20.9661 47.7755 20.8103 47.02 20.4985C46.2727 20.1786 45.628 19.7314 45.086 19.1573C44.5523 18.583 44.1417 17.9022 43.8543 17.1147C43.5668 16.3272 43.4231 15.4659 43.4231 14.5307V14.014C43.4231 12.9311 43.5833 11.9673 43.9036 11.1223C44.2238 10.2692 44.659 9.54733 45.2092 8.95671C45.7595 8.36608 46.3836 7.91902 47.0817 7.6155C47.7796 7.31198 48.5022 7.16022 49.2495 7.16022C50.2021 7.16022 51.0234 7.32428 51.7131 7.65241C52.4112 7.98053 52.9819 8.43991 53.4253 9.03053C53.8688 9.61296 54.1973 10.302 54.4109 11.0977C54.6243 11.8852 54.7311 12.7466 54.7311 13.6817V14.7029H45.7164C45.7307 15.2708 45.8162 15.8081 45.9729 16.3149C46.1536 16.8645 46.4123 17.3485 46.7491 17.7668C47.0939 18.1853 47.5086 18.5133 47.9932 18.7513C48.4858 18.9892 49.0443 19.108 49.6684 19.108C50.4732 19.108 51.1547 18.9439 51.7131 18.6159C52.2716 18.2878 52.7602 17.8489 53.1789 17.2992L54.5586 18.3944C54.2711 18.8291 53.9058 19.2434 53.4623 19.6372C53.0189 20.0309 52.4727 20.3508 51.824 20.5969C51.1835 20.843 50.4239 20.9661 49.5452 20.9661ZM45.7832 12.845H52.4523V12.6727C52.4195 12.0821 52.2963 11.5079 52.0827 10.9501C51.8774 10.3923 51.549 9.93288 51.0973 9.57194C50.6456 9.21101 50.0297 9.03053 49.2495 9.03053C48.7322 9.03053 48.2558 9.14127 47.8207 9.36277C47.3855 9.57604 47.0119 9.89596 46.6997 10.3225C46.3876 10.7491 46.1454 11.27 45.9729 11.8852C45.8895 12.183 45.8262 12.503 45.7832 12.845Z" fill="white" fill-opacity="0.7"/>
<path d="M36.2226 20.72L31.3939 7.40631H33.7343L37.1197 17.6067L40.4231 7.40631H42.7511L37.9595 20.72H36.2226Z" fill="white" fill-opacity="0.7"/>
</g>
<defs>
<clipPath id="clip0_2005_499">
<rect width="111" height="28" fill="white"/>
</clipPath>
</defs>
</svg>
