<svg width="104" height="28" viewBox="0 0 104 28" fill="none" xmlns="http://www.w3.org/2000/svg">
<mask id="mask0_2005_534" style="mask-type:luminance" maskUnits="userSpaceOnUse" x="0" y="0" width="104" height="28">
<path d="M104 0H0V28H104V0Z" fill="white"/>
</mask>
<g mask="url(#mask0_2005_534)">
<path d="M15.3728 23.7645C17.2486 23.6115 19.0433 22.9598 20.5574 21.8818L23.3724 25.1018C21.2215 26.694 18.651 27.674 15.9521 27.9309C13.2531 28.1878 10.5334 27.7111 8.10098 26.5551C5.66854 25.399 3.6205 23.6097 2.18874 21.3896C0.756969 19.1694 -0.00133034 16.6074 -0.000304136 13.9934C0.000722067 11.3793 0.761032 8.81779 2.19454 6.59876C3.62805 4.37974 5.67751 2.59185 8.11085 1.43755C10.5442 0.283249 13.2642 -0.191361 15.963 0.0674547C18.6617 0.326271 21.2314 1.30817 23.3811 2.90199L20.5647 6.12199C19.0516 5.04268 17.2574 4.3894 15.3818 4.23491C13.5063 4.0804 11.6231 4.43077 9.942 5.24695C8.26088 6.06314 6.84783 7.31311 5.86023 8.85765C4.87263 10.4022 4.34927 12.1806 4.34843 13.995C4.3476 15.8093 4.86931 17.5881 5.8555 19.1336C6.84167 20.6789 8.25357 21.9301 9.93394 22.7477C11.6143 23.5654 13.4972 23.9174 15.3728 23.7645Z" fill="white" fill-opacity="0.7"/>
<path d="M24.3718 24.2886L21.5568 21.0686H21.5612C22.5528 20.1558 23.3422 19.0586 23.8815 17.8434C24.4207 16.6282 24.6989 15.3204 24.6989 13.9986C24.6989 12.6769 24.4207 11.369 23.8815 10.1538C23.3422 8.93861 22.5528 7.84145 21.5612 6.92862L24.379 3.70862C25.8529 5.0201 27.029 6.6116 27.8333 8.38287C28.6374 10.1541 29.0522 12.0667 29.0515 14.0002C29.0509 15.9336 28.6347 17.846 27.8293 19.6167C27.0239 21.3874 25.8466 22.9781 24.3718 24.2886Z" fill="white" fill-opacity="0.7"/>
<path d="M82.2803 0.839844V23.3238H85.0604V0.839844H82.2803Z" fill="white" fill-opacity="0.7"/>
<path fill-rule="evenodd" clip-rule="evenodd" d="M96.0764 21.1989C93.1045 21.1989 90.8357 19.6281 90.2925 16.8561H103.682C103.746 16.4557 103.778 16.0553 103.778 15.6549C103.778 11.3429 100.646 7.52368 95.8207 7.52368C90.8357 7.52368 87.4484 11.0657 87.4484 15.6241C87.4484 20.2441 90.8676 23.7245 96.0125 23.7245C99.208 23.7245 101.637 22.3385 103.043 20.2441L100.678 18.9505C99.879 20.2133 98.2813 21.1989 96.0764 21.1989ZM90.2925 14.5153C90.7398 11.8357 92.8169 10.0493 95.8207 10.0493C98.2174 10.0493 100.486 11.4661 100.966 14.5153H90.2925Z" fill="white" fill-opacity="0.7"/>
<path d="M73.304 23.7245C68.4788 23.7245 64.8998 20.1825 64.8998 15.6241C64.8998 11.0657 68.4788 7.52368 73.304 7.52368C76.4676 7.52368 79.1519 9.12528 80.3662 11.5585L78.0334 12.8521C77.2345 11.2197 75.445 10.1417 73.304 10.1417C70.1085 10.1417 67.6799 12.5133 67.6799 15.6241C67.6799 18.7041 70.1085 21.0757 73.304 21.0757C75.477 21.0757 77.2345 19.9977 78.1293 18.3961L80.494 19.7205C79.1519 22.1229 76.4357 23.7245 73.304 23.7245Z" fill="white" fill-opacity="0.7"/>
<path d="M64.9066 7.64685C62.8934 7.64685 60.9442 8.35525 59.9216 10.5113V7.92405H57.1415V23.3241H59.9216V15.1621C59.9216 11.5277 62.51 10.3573 64.9066 10.4497V7.64685Z" fill="white" fill-opacity="0.7"/>
<path d="M52.4846 5.12118C51.4301 5.12118 50.5992 4.32038 50.5992 3.33478C50.5992 2.34918 51.4301 1.51758 52.4846 1.51758C53.5072 1.51758 54.338 2.34918 54.338 3.33478C54.338 4.32038 53.5072 5.12118 52.4846 5.12118Z" fill="white" fill-opacity="0.7"/>
<path d="M51.0786 23.3241V7.92407H53.8587V23.3241H51.0786Z" fill="white" fill-opacity="0.7"/>
<path d="M33.6982 15.6241C33.6982 20.1825 37.2772 23.7245 42.1024 23.7245C45.234 23.7245 47.9502 22.1229 49.2924 19.7205L46.9277 18.3961C46.0329 19.9977 44.2754 21.0757 42.1024 21.0757C38.9069 21.0757 36.4783 18.7041 36.4783 15.6241C36.4783 12.5133 38.9069 10.1417 42.1024 10.1417C44.2434 10.1417 46.0329 11.2197 46.8318 12.8521L49.1645 11.5585C47.9502 9.12528 45.266 7.52368 42.1024 7.52368C37.2772 7.52368 33.6982 11.0657 33.6982 15.6241Z" fill="white" fill-opacity="0.7"/>
</g>
</svg>
