<svg width="119" height="28" viewBox="0 0 119 28" fill="none" xmlns="http://www.w3.org/2000/svg">
<mask id="mask0_2005_520" style="mask-type:luminance" maskUnits="userSpaceOnUse" x="0" y="0" width="119" height="28">
<path d="M119 0H0V28H119V0Z" fill="white"/>
</mask>
<g mask="url(#mask0_2005_520)">
<path d="M14.1088 0C5.72968 0 0 5.32 0 14.0756C0 22.435 5.72968 28 14.1088 28C22.4879 28 28.066 22.435 28.066 14.0756C28.066 5.32 22.4879 0 14.1088 0ZM22.443 22.3902C21.8968 22.9328 21.2877 23.4084 20.6285 23.807V12.32L18.1026 10.92V24.92C17.1885 25.1917 16.2474 25.3631 15.296 25.431V7.021L12.77 5.621V25.4226C11.8667 25.3483 10.9733 25.1821 10.1038 24.927V11.76L7.57783 13.16V23.8266C4.39093 21.9324 2.52594 18.5066 2.52594 14.07C2.52594 10.5098 3.61631 7.5628 5.68057 5.5468C7.70974 3.5686 10.6244 2.52 14.1088 2.52C17.5932 2.52 20.4587 3.5644 22.4528 5.5384C24.475 7.546 25.5401 10.4986 25.5401 14.0784C25.5401 17.5 24.4694 20.37 22.443 22.3902Z" fill="white" fill-opacity="0.7"/>
<path d="M87.8397 7.84003H90.6435L90.6182 20.44H87.8144L87.8397 7.84003Z" fill="white" fill-opacity="0.7"/>
<path d="M89.229 5.44601C88.7743 5.44601 88.3786 5.28641 88.0418 4.96721C87.7218 4.63121 87.5618 4.23641 87.5618 3.78281C87.5618 3.32921 87.7218 2.94281 88.0418 2.62361C88.3786 2.30441 88.7743 2.14481 89.229 2.14481C89.6836 2.14481 90.0709 2.30441 90.3909 2.62361C90.7277 2.94281 90.8961 3.32921 90.8961 3.78281C90.8961 4.23641 90.7277 4.63121 90.3909 4.96721C90.0709 5.28641 89.6836 5.44601 89.229 5.44601Z" fill="white" fill-opacity="0.7"/>
<path d="M93.4473 20.44H96.2763V13.8628C96.2763 12.67 96.5374 11.7544 97.0594 11.116C97.5814 10.4776 98.3139 10.1668 99.257 10.1836C99.8127 10.1836 100.293 10.2928 100.697 10.5112C101.118 10.7296 101.438 11.116 101.657 11.6704C101.892 12.208 102.01 12.9808 102.01 13.9888V20.44H104.839V13.2328C104.839 11.3008 104.418 9.87283 103.576 8.94883C102.751 8.00803 101.572 7.53763 100.04 7.53763C99.0465 7.53763 98.1876 7.78963 97.4635 8.29363C96.9776 8.6206 96.5675 9.05352 96.2333 9.59237L96.0995 7.84003H93.4473V20.44Z" fill="white" fill-opacity="0.7"/>
<path fill-rule="evenodd" clip-rule="evenodd" d="M109.549 19.9108C110.509 20.4652 111.603 20.7424 112.833 20.7424C113.792 20.7424 114.643 20.608 115.384 20.3392C116.142 20.0704 116.79 19.684 117.329 19.18C117.885 18.676 118.339 18.088 118.693 17.416L116.091 16.3072C115.822 16.8448 115.443 17.29 114.954 17.6428C114.466 17.9788 113.843 18.1468 113.085 18.1468C112.395 18.1468 111.763 17.9956 111.191 17.6932C110.635 17.374 110.189 16.9204 109.852 16.3324C109.613 15.8938 109.464 15.3898 109.403 14.8204H118.945C118.945 13.3084 118.676 12.0064 118.137 10.9144C117.598 9.82243 116.874 8.99083 115.965 8.41963C115.072 7.83163 114.062 7.53763 112.934 7.53763C111.688 7.53763 110.576 7.82323 109.599 8.39443C108.64 8.94883 107.882 9.72163 107.326 10.7128C106.77 11.704 106.493 12.8464 106.493 14.14C106.493 15.4336 106.762 16.576 107.301 17.5672C107.857 18.5584 108.606 19.3396 109.549 19.9108ZM115.834 12.5776C115.791 12.4185 115.742 12.2673 115.687 12.124C115.434 11.4184 115.064 10.8976 114.576 10.5616C114.104 10.2088 113.523 10.0324 112.833 10.0324C112.109 10.0324 111.485 10.192 110.963 10.5112C110.441 10.8304 110.046 11.3008 109.776 11.9224C109.687 12.1232 109.612 12.3416 109.552 12.5776H115.834Z" fill="white" fill-opacity="0.7"/>
<path d="M82.1733 2.79999V20.44H85.0023V2.79999H82.1733Z" fill="white" fill-opacity="0.7"/>
<path fill-rule="evenodd" clip-rule="evenodd" d="M76.8733 20.44L76.772 18.5589C76.4227 19.1124 75.9934 19.5714 75.484 19.936C74.7262 20.4736 73.8169 20.7424 72.756 20.7424C71.6109 20.7424 70.609 20.4736 69.7501 19.936C68.9082 19.3816 68.243 18.6088 67.7546 17.6176C67.2831 16.6264 67.0474 15.4672 67.0474 14.14C67.0474 12.796 67.2831 11.6368 67.7546 10.6624C68.243 9.67119 68.9082 8.90679 69.7501 8.36919C70.609 7.81479 71.6109 7.53759 72.756 7.53759C73.8169 7.53759 74.7262 7.81479 75.484 8.36919C75.9814 8.71436 76.4024 9.15302 76.747 9.68517V2.79999H79.5508V20.44H76.8733ZM76.3176 16.2316C76.6039 15.6268 76.747 14.9296 76.747 14.14C76.747 13.3504 76.6039 12.6532 76.3176 12.0484C76.0482 11.4436 75.6608 10.9732 75.1557 10.6372C74.6673 10.3012 74.0948 10.1332 73.438 10.1332C72.7644 10.1332 72.1666 10.3012 71.6446 10.6372C71.1226 10.9732 70.71 11.4436 70.4069 12.0484C70.1206 12.6532 69.9691 13.3504 69.9522 14.14C69.9691 14.9296 70.1206 15.6268 70.4069 16.2316C70.71 16.8364 71.1226 17.3152 71.6446 17.668C72.1835 18.004 72.7897 18.172 73.4633 18.172C74.1032 18.172 74.6673 18.004 75.1557 17.668C75.6608 17.3152 76.0482 16.8364 76.3176 16.2316Z" fill="white" fill-opacity="0.7"/>
<path d="M62.2903 2.79999V20.44H65.1194V2.79999H62.2903Z" fill="white" fill-opacity="0.7"/>
<path fill-rule="evenodd" clip-rule="evenodd" d="M53.9281 20.7424C52.6651 20.7424 51.5368 20.4652 50.5433 19.9108C49.5666 19.3396 48.8004 18.5584 48.2447 17.5672C47.689 16.576 47.4111 15.4336 47.4111 14.14C47.4111 12.8464 47.6806 11.704 48.2194 10.7128C48.7751 9.72163 49.5413 8.94883 50.518 8.39443C51.4947 7.82323 52.6146 7.53763 53.8775 7.53763C55.1405 7.53763 56.2603 7.82323 57.237 8.39443C58.2139 8.94883 58.9715 9.72163 59.5104 10.7128C60.0661 11.704 60.3439 12.8464 60.3439 14.14C60.3439 15.4336 60.0745 16.576 59.5356 17.5672C58.9968 18.5584 58.239 19.3396 57.2623 19.9108C56.2856 20.4652 55.1742 20.7424 53.9281 20.7424ZM53.9281 18.1468C54.6185 18.1468 55.2331 17.9788 55.772 17.6428C56.3109 17.29 56.7318 16.8196 57.035 16.2316C57.3381 15.6268 57.4896 14.9296 57.4896 14.14C57.4896 13.3504 57.3298 12.6616 57.0098 12.0736C56.7066 11.4688 56.2856 10.9984 55.7467 10.6624C55.2079 10.3096 54.5848 10.1332 53.8775 10.1332C53.1703 10.1332 52.5472 10.3012 52.0083 10.6372C51.4695 10.9732 51.0485 11.4436 50.7454 12.0484C50.4423 12.6532 50.2907 13.3504 50.2907 14.14C50.2907 14.9296 50.4423 15.6268 50.7454 16.2316C51.0653 16.8196 51.4947 17.29 52.0336 17.6428C52.5893 17.9788 53.2208 18.1468 53.9281 18.1468Z" fill="white" fill-opacity="0.7"/>
<path fill-rule="evenodd" clip-rule="evenodd" d="M36.5824 25.5808C37.3065 25.732 38.1148 25.8076 39.0073 25.8076C40.304 25.8076 41.4406 25.5472 42.4173 25.0264C43.394 24.5224 44.1518 23.7664 44.6907 22.7584C45.2295 21.7672 45.499 20.5576 45.499 19.1296V7.84003H42.6699V9.87182C42.2927 9.24601 41.8212 8.73674 41.2554 8.34403C40.4976 7.80643 39.6051 7.53763 38.5779 7.53763C37.4328 7.53763 36.4308 7.80643 35.572 8.34403C34.73 8.88163 34.0649 9.62923 33.5765 10.5868C33.105 11.5444 32.8693 12.6784 32.8693 13.9888C32.8693 15.2152 33.105 16.2988 33.5765 17.2396C34.0649 18.1636 34.73 18.886 35.572 19.4068C36.4308 19.9276 37.4328 20.188 38.5779 20.188C39.6051 20.188 40.4976 19.936 41.2554 19.432C41.8212 19.0516 42.2927 18.5636 42.6699 17.9679V19.2052C42.6699 20.146 42.5099 20.9188 42.19 21.5236C41.87 22.1284 41.4238 22.5736 40.8512 22.8592C40.2787 23.1616 39.6304 23.3128 38.9063 23.3128C38.2327 23.3128 37.6265 23.2456 37.0876 23.1112C36.5487 22.9768 36.0772 22.8172 35.6731 22.6324C35.2857 22.4644 34.9742 22.3216 34.7385 22.204L33.6523 24.472C33.9217 24.6568 34.3006 24.85 34.789 25.0516C35.2773 25.2532 35.8751 25.4296 36.5824 25.5808ZM41.0281 17.29C40.5566 17.626 40.0008 17.794 39.3609 17.794C38.6874 17.794 38.0895 17.626 37.5675 17.29C37.0455 16.954 36.6329 16.5004 36.3298 15.9292C36.0435 15.3412 35.9004 14.6692 35.9004 13.9132C35.9004 13.1404 36.0435 12.4684 36.3298 11.8972C36.6329 11.3092 37.0371 10.8556 37.5423 10.5364C38.0643 10.2004 38.6621 10.0324 39.3357 10.0324C39.9756 10.0324 40.5397 10.2004 41.0281 10.5364C41.5164 10.8556 41.8953 11.3092 42.1647 11.8972C42.4342 12.4684 42.5689 13.1404 42.5689 13.9132C42.5689 14.6692 42.4342 15.3412 42.1647 15.9292C41.8953 16.5004 41.5164 16.954 41.0281 17.29Z" fill="white" fill-opacity="0.7"/>
</g>
</svg>
