<svg width="12" height="12" viewBox="0 0 12 12" fill="none" xmlns="http://www.w3.org/2000/svg">
<path d="M5.13554 1.48656C5.52112 0.823497 6.47888 0.823496 6.86446 1.48656L8.07315 3.56508C8.16033 3.715 8.285 3.83967 8.43492 3.92685L10.5134 5.13554C11.1765 5.52112 11.1765 6.47888 10.5134 6.86446L8.43492 8.07315C8.285 8.16033 8.16033 8.285 8.07315 8.43492L6.86446 10.5134C6.47888 11.1765 5.52112 11.1765 5.13554 10.5134L3.92685 8.43492C3.83967 8.285 3.715 8.16033 3.56508 8.07315L1.48656 6.86446C0.823497 6.47888 0.823496 5.52112 1.48656 5.13554L3.56508 3.92685C3.715 3.83967 3.83967 3.715 3.92685 3.56508L5.13554 1.48656Z" fill="#F25325"/>
</svg>
