<svg width="139" height="40" viewBox="0 0 139 40" fill="none" xmlns="http://www.w3.org/2000/svg">
<path fill-rule="evenodd" clip-rule="evenodd" d="M0 23.9999H15.9999V40L32 23.9999V8H15.9999L0 23.9999Z" fill="white"/>
<path d="M74.9998 10C81.0749 10 85.9998 14.9249 85.9998 21C85.9998 27.0751 81.0749 32 74.9998 32C68.9247 31.9999 63.9998 27.0751 63.9998 21C63.9998 14.9249 68.9247 10.0001 74.9998 10ZM52.9002 10.3936C55.1402 10.3936 58.3658 10.8422 61.1433 13.082C61.7703 13.6196 61.8603 14.6053 61.323 15.2324C60.7855 15.8596 59.7998 15.9485 59.1726 15.4111C57.1119 13.7089 54.6026 13.3506 52.9002 13.3506C50.1225 13.3506 47.3445 14.3366 47.3445 16.3975C47.3446 18.2789 48.9583 18.8164 53.4382 19.5332C55.3195 19.802 57.2906 20.1604 58.9031 20.877C61.5907 22.0417 62.1296 24.1028 62.1297 25.626C62.1297 28.762 59.4408 31.8085 53.617 31.8086C50.4812 31.8086 47.3451 30.8232 44.7468 29.1211C44.03 28.673 43.8501 27.687 44.1189 27.1494C44.5669 26.4329 45.5526 26.2535 46.2693 26.7012C47.5238 27.5076 50.1232 28.8516 53.4382 28.8516C56.6634 28.8514 58.903 27.687 58.9031 25.8057C58.9031 24.0137 57.38 23.4756 52.9002 22.7588C51.0187 22.49 49.0471 22.1317 47.4343 21.415C44.7463 20.1606 44.2088 18.0994 44.2088 16.5762C44.2089 13.6193 46.9866 10.3936 52.9002 10.3936ZM98.5974 10.3047C104.152 10.3049 108.722 14.7848 108.722 20.4297V30.2852C108.722 31.181 108.005 31.8084 107.199 31.8086C106.393 31.8085 105.676 31.0915 105.676 30.2852V20.4297C105.676 16.4873 102.54 13.3508 98.5974 13.3506C94.386 13.3507 90.8914 16.8454 90.8914 21.0566C90.8914 25.2679 94.386 28.7626 98.5974 28.7627C99.4035 28.7629 100.121 29.479 100.121 30.2852C100.121 31.0915 99.4036 31.8084 98.5974 31.8086C92.6836 31.8085 87.8455 26.9703 87.8455 21.0566C87.8455 15.1429 92.6835 10.3048 98.5974 10.3047ZM113.334 0C114.14 0.000169981 114.856 0.717113 114.856 1.52344V30.2852C114.946 31.1811 114.229 31.8085 113.334 31.8086C112.527 31.8086 111.81 31.0916 111.81 30.2852V1.52344C111.81 0.717018 112.527 1.53184e-06 113.334 0ZM128.876 10.3047C134.431 10.3048 139.001 14.7848 139.001 20.4297V20.6084C139.001 21.4147 138.284 22.1317 137.477 22.1318H121.022C120.216 22.1316 119.5 21.4147 119.5 20.6084C119.5 19.8022 120.216 19.0852 121.022 19.085H135.775C135.148 15.8595 132.28 13.3507 128.786 13.3506C124.575 13.3508 121.081 16.8455 121.081 21.0566C121.081 25.2678 124.575 28.7625 128.786 28.7627C131.384 28.7626 133.714 27.6871 135.327 25.8057C135.865 25.1787 136.85 25.0888 137.477 25.626C138.104 26.1635 138.194 27.1492 137.657 27.7764C135.507 30.3748 132.28 31.8085 128.876 31.8086C122.962 31.8084 118.124 26.9702 118.124 21.0566C118.124 15.143 122.962 10.3049 128.876 10.3047ZM74.9998 13.5195C70.8688 13.5197 67.5203 16.869 67.5203 21C67.5203 25.131 70.8688 28.4803 74.9998 28.4805C79.1309 28.4805 82.4802 25.1311 82.4802 21C82.4802 16.8689 79.1309 13.5195 74.9998 13.5195Z" fill="white"/>
</svg>
