<svg width="54" height="54" viewBox="0 0 54 54" fill="none" xmlns="http://www.w3.org/2000/svg">
<rect y="4" width="50" height="50" rx="25" fill="#EDEDED"/>
<path fill-rule="evenodd" clip-rule="evenodd" d="M13.2488 19.7076L21.6638 27.8649C23.4991 29.6398 26.4993 29.6414 28.3361 27.8649L36.7511 19.7076C36.771 19.6884 36.7863 19.6653 36.796 19.6397C36.8056 19.6142 36.8093 19.5869 36.8068 19.5598C36.8044 19.5328 36.7958 19.5065 36.7817 19.483C36.7676 19.4595 36.7483 19.4393 36.7252 19.4238C35.8669 18.8438 34.8227 18.5 33.6978 18.5H16.3022C15.1773 18.5 14.133 18.8439 13.2747 19.4238C13.2516 19.4393 13.2324 19.4595 13.2183 19.483C13.2042 19.5065 13.1956 19.5328 13.1931 19.5598C13.1906 19.5869 13.1943 19.6142 13.204 19.6397C13.2136 19.6653 13.2289 19.6884 13.2488 19.7076ZM11 23.6375C10.9993 22.8087 11.2072 21.9922 11.6056 21.2588C11.6195 21.2329 11.6396 21.2106 11.664 21.1937C11.6885 21.1767 11.7168 21.1656 11.7465 21.1612C11.7763 21.1568 11.8067 21.1593 11.8353 21.1685C11.8638 21.1776 11.8898 21.1932 11.911 21.2139L20.2195 29.2644C22.8505 31.8174 27.1479 31.8189 29.7805 29.2644L38.089 21.2139C38.1102 21.1932 38.1362 21.1776 38.1647 21.1685C38.1933 21.1593 38.2237 21.1568 38.2535 21.1612C38.2832 21.1656 38.3115 21.1767 38.336 21.1937C38.3604 21.2106 38.3805 21.2329 38.3944 21.2588C38.7928 21.9922 39.0006 22.8087 39 23.6375V34.3624C39 37.1974 36.62 39.5 33.6978 39.5H16.3022C13.3801 39.5 11 37.1974 11 34.3624V23.6375Z" fill="#878787"/>
<rect x="36" width="18" height="18" rx="8" fill="#E51C19"/>
<path d="M44.8989 12.9201C44.5078 12.9201 44.1433 12.8401 43.8055 12.6801C43.4678 12.5165 43.1762 12.2925 42.9309 12.0081C42.6891 11.7236 42.5149 11.393 42.4082 11.0161L43.6455 10.6854C43.6953 10.8916 43.786 11.0694 43.9175 11.2187C44.0526 11.3681 44.2091 11.4836 44.3869 11.5654C44.5682 11.6472 44.7549 11.6881 44.9469 11.6881C45.1958 11.6881 45.4233 11.6276 45.6295 11.5067C45.8358 11.3859 45.9993 11.2241 46.1202 11.0214C46.2411 10.8152 46.3015 10.5876 46.3015 10.3387C46.3015 10.0899 46.2393 9.86408 46.1149 9.66141C45.994 9.45519 45.8304 9.29341 45.6242 9.17608C45.418 9.05519 45.1922 8.99475 44.9469 8.99475C44.6518 8.99475 44.4064 9.04808 44.2109 9.15474C44.0189 9.26141 43.8713 9.37519 43.7682 9.49608L42.6695 9.14408L42.9042 5.08008H47.0749V6.28541H43.5922L44.0722 5.83208L43.9015 8.65874L43.6669 8.37075C43.866 8.18941 44.0971 8.0543 44.3602 7.96541C44.6233 7.87652 44.8775 7.83208 45.1229 7.83208C45.6029 7.83208 46.0278 7.9423 46.3975 8.16274C46.7709 8.37963 47.0624 8.67652 47.2722 9.05341C47.4855 9.4303 47.5922 9.85875 47.5922 10.3387C47.5922 10.8187 47.4678 11.2543 47.2189 11.6454C46.97 12.033 46.6411 12.3423 46.2322 12.5734C45.8269 12.8045 45.3824 12.9201 44.8989 12.9201Z" fill="white"/>
</svg>
