<svg width="45" height="45" viewBox="0 0 45 45" fill="none" xmlns="http://www.w3.org/2000/svg">
<rect width="45" height="45" fill="url(#paint0_linear_2029_248)"/>
<path d="M31.5 18C31.5 16.8181 31.2672 15.6478 30.8149 14.5558C30.3626 13.4639 29.6997 12.4718 28.864 11.636C28.0282 10.8003 27.0361 10.1374 25.9442 9.68508C24.8522 9.23279 23.6819 9 22.5 9C21.3181 9 20.1478 9.23279 19.0558 9.68508C17.9639 10.1374 16.9718 10.8003 16.136 11.636C15.3003 12.4718 14.6374 13.4639 14.1851 14.5559C13.7328 15.6478 13.5 16.8181 13.5 18L22.5 18H31.5Z" fill="white" fill-opacity="0.5"/>
<path d="M31.5 27C31.5 31.9706 27.4706 36 22.5 36C17.5294 36 13.5 31.9706 13.5 27C13.5 22.0294 17.5294 18 22.5 18C27.4706 18 31.5 22.0294 31.5 27Z" fill="white"/>
<defs>
<linearGradient id="paint0_linear_2029_248" x1="38.5" y1="39.5" x2="0" y2="0" gradientUnits="userSpaceOnUse">
<stop stop-color="#006703"/>
<stop offset="0.572622" stop-color="#6FE837"/>
<stop offset="1" stop-color="#12B796"/>
</linearGradient>
</defs>
</svg>
