<svg width="45" height="45" viewBox="0 0 45 45" fill="none" xmlns="http://www.w3.org/2000/svg">
<rect width="45" height="45" fill="url(#paint0_linear_2029_262)"/>
<path d="M19.3099 12.4252C20.2727 9.27859 24.7273 9.27859 25.6901 12.4252C26.2027 14.1001 27.9232 15.0935 29.6299 14.6999C32.8364 13.9604 35.0637 17.8182 32.8201 20.2254C31.6258 21.5067 31.6258 23.4933 32.8201 24.7746C35.0637 27.1818 32.8364 31.0396 29.6299 30.3001C27.9232 29.9065 26.2027 30.8999 25.6901 32.5748C24.7273 35.7214 20.2727 35.7214 19.3099 32.5748C18.7973 30.8999 17.0768 29.9065 15.3701 30.3001C12.1636 31.0396 9.93629 27.1818 12.1799 24.7746C13.3742 23.4933 13.3742 21.5067 12.1799 20.2254C9.93629 17.8182 12.1636 13.9604 15.3701 14.6999C17.0768 15.0935 18.7973 14.1001 19.3099 12.4252Z" fill="white"/>
<defs>
<linearGradient id="paint0_linear_2029_262" x1="34.5" y1="41" x2="0" y2="0" gradientUnits="userSpaceOnUse">
<stop stop-color="#3592DE"/>
<stop offset="0.265" stop-color="#0C616B"/>
<stop offset="1" stop-color="#00237B"/>
</linearGradient>
</defs>
</svg>
