<svg width="45" height="45" viewBox="0 0 45 45" fill="none" xmlns="http://www.w3.org/2000/svg">
<rect width="45" height="45" fill="url(#paint0_linear_2029_252)"/>
<path d="M21.5697 9.85871C21.9027 9.01457 23.0973 9.01457 23.4303 9.85872L26.5833 17.8533C26.6849 18.1111 26.8889 18.3151 27.1467 18.4167L35.1413 21.5697C35.9854 21.9027 35.9854 23.0973 35.1413 23.4303L27.1467 26.5833C26.8889 26.6849 26.6849 26.8889 26.5833 27.1467L23.4303 35.1413C23.0973 35.9854 21.9027 35.9854 21.5697 35.1413L18.4167 27.1467C18.3151 26.8889 18.1111 26.6849 17.8533 26.5833L9.85871 23.4303C9.01457 23.0973 9.01457 21.9027 9.85872 21.5697L17.8533 18.4167C18.1111 18.3151 18.3151 18.1111 18.4167 17.8533L21.5697 9.85871Z" fill="white"/>
<defs>
<linearGradient id="paint0_linear_2029_252" x1="34.5" y1="41" x2="0" y2="0" gradientUnits="userSpaceOnUse">
<stop stop-color="#7335DE"/>
<stop offset="0.265" stop-color="#E837BC"/>
<stop offset="1" stop-color="#F83C3F"/>
</linearGradient>
</defs>
</svg>
